<?xml version="1.0" encoding="UTF-8" standalone="no"?>
<svg
   xmlns:dc="http://purl.org/dc/elements/1.1/"
   xmlns:cc="http://creativecommons.org/ns#"
   xmlns:rdf="http://www.w3.org/1999/02/22-rdf-syntax-ns#"
   xmlns:svg="http://www.w3.org/2000/svg"
   xmlns="http://www.w3.org/2000/svg"
   viewBox="0 0 290.70001 198.3"
   height="198.3"
   width="290.70001"
   version="1.1"
   id="svg3390">
  <metadata
     id="metadata3396">
    <rdf:RDF>
      <cc:Work
         rdf:about="">
        <dc:format>image/svg+xml</dc:format>
        <dc:type
           rdf:resource="http://purl.org/dc/dcmitype/StillImage" />
        <dc:title></dc:title>
      </cc:Work>
    </rdf:RDF>
  </metadata>
  <defs
     id="defs3394" />
  <path
     id="path3454"
     d="m 30.115954,195.62819 c -2.591171,-1.58005 -3.143392,-6.62506 -1.272508,-11.62544 1.26349,-3.37698 4.466431,-6.10275 7.171093,-6.10275 4.445364,0 6.245988,7.39689 3.236592,13.2958 -0.860769,1.68724 -2.915988,3.8102 -4.30113,4.4429 -1.574376,0.71913 -3.644871,0.71463 -4.834047,-0.0105 z m 4.38411,-2.80319 c 0.543837,-0.37125 1.407552,-1.4175 1.919367,-2.325 0.888981,-1.57626 0.93057,-1.80197 0.93057,-5.05043 0,-3.36576 -0.0087,-3.40794 -0.854388,-4.13589 -1.073637,-0.92419 -1.794762,-0.75246 -3.195612,0.76097 -1.56792,1.69393 -2.2491,3.83999 -2.249589,7.08737 -6e-4,4.11176 1.092276,5.27224 3.449652,3.66298 z m 26.611027,2.7 c -0.395901,-0.37125 -0.857589,-0.945 -1.025967,-1.275 -1.482273,-2.90503 0.0302,-8.45834 3.268761,-12.00184 2.258181,-2.47081 4.523571,-3.43199 6.471117,-2.74562 l 0.675,0.23789 0,-3.75251 c 0,-2.17807 -0.125871,-3.8303 -0.3,-3.93792 -0.523632,-0.32362 -0.32535,-1.1077 0.465456,-1.8406 0.866847,-0.80337 1.568067,-0.89352 2.372824,-0.30507 0.52263,0.38216 0.549336,1.03312 0.486966,11.86972 -0.04864,8.45094 0.02706,11.57748 0.287883,11.89177 0.194631,0.23451 0.272556,0.75038 0.173169,1.14637 -0.240057,0.95646 -2.007058,1.33978 -3.044011,0.66034 -0.663582,-0.43479 -0.698454,-0.60096 -0.5547,-2.64325 l 0.153399,-2.17928 -0.695493,0.89716 c -1.596054,2.05884 -2.530557,2.9466 -3.972141,3.77345 -1.927422,1.10552 -3.71928,1.18243 -4.762263,0.20439 z m 4.732065,-2.92077 c 0.944952,-0.58401 2.895066,-3.11315 3.866346,-5.01433 0.552669,-1.08179 0.660081,-4.01248 0.179946,-4.90962 C 69.665237,182.26133 69.258812,182.1 68.427656,182.1 c -0.982704,0 -1.33626,0.20072 -2.41509,1.37112 -2.480301,2.69081 -3.975762,7.32203 -2.89632,8.96947 0.59874,0.91379 1.432218,0.9638 2.72691,0.16364 z m 57.433774,2.71885 -0.87693,-0.87692 -0.0536,-7.07308 c -0.0295,-3.89019 -0.0632,-7.37165 -0.075,-7.73658 -0.0308,-0.95453 1.32026,-1.66075 2.43035,-1.27036 l 0.84261,0.29633 -0.0949,6.59377 c -0.0763,5.30077 -0.0124,6.70392 0.32566,7.15552 0.58719,0.7844 1.40698,0.45015 2.91891,-1.1901 l 1.24943,-1.35548 -0.0705,-5.33288 c -0.0388,-2.93308 0.0269,-5.49047 0.14594,-5.68309 0.29379,-0.47535 2.42879,-0.44514 2.83148,0.0401 0.2114,0.25473 0.338,3.13411 0.36447,8.29015 0.045,8.76805 0.11205,8.48331 -1.96492,8.34783 -1.14737,-0.0748 -1.20657,-0.12862 -1.35,-1.22656 l -0.15,-1.14828 -0.9,0.95076 c -1.09368,1.15537 -2.84869,2.09581 -3.91112,2.09581 -0.46766,0 -1.13955,-0.35452 -1.66195,-0.87692 z m 57.02308,0.64256 c -0.2475,-0.0781 -0.75375,-0.41836 -1.125,-0.75612 -0.66151,-0.60183 -0.675,-0.74801 -0.675,-7.31181 l 0,-6.69771 -0.76973,0 c -0.42334,0 -1.03084,0.13975 -1.35,0.31055 -0.93375,0.49974 -1.78027,-0.13476 -1.78027,-1.33437 0,-1.09398 0.55654,-1.75194 1.40711,-1.66352 0.29859,0.031 1.00165,0.0409 1.56235,0.0219 l 1.01947,-0.0346 -0.18298,-2.3728 c -0.21522,-2.79091 -0.005,-3.111 1.94688,-2.97053 l 1.29717,0.0933 -0.10457,2.175 c -0.12003,2.49637 -0.14673,2.47864 2.64288,1.75502 1.8843,-0.48878 2.35,-0.38026 2.59735,0.60526 0.20483,0.81611 -0.63213,2.34502 -1.119,2.04411 -0.16884,-0.10434 -1.17541,-0.0259 -2.23682,0.17441 l -1.92984,0.36414 0,6.11603 c 0,5.75661 0.0327,6.11603 0.55648,6.11603 0.72722,0 3.48393,-2.92331 3.74768,-3.97417 0.4012,-1.5985 2.89879,-1.3311 2.89292,0.30972 -0.008,2.33663 -6.37621,7.66783 -8.39708,7.03009 z m 15.16897,-0.0637 c -0.95691,-0.30408 -2.17299,-1.54173 -2.60031,-2.64642 -0.72388,-1.87134 -0.10964,-6.84385 1.21544,-9.83939 0.71684,-1.62056 2.81116,-3.89944 4.26546,-4.64137 2.85199,-1.45497 5.74232,-0.15724 6.52952,2.93171 0.39332,1.54335 0.0998,2.42144 -1.16527,3.48593 -0.86377,0.72681 -4.0857,1.92557 -6.61381,2.46075 -1.34019,0.28371 -1.48982,0.53939 -1.49541,2.55515 -0.006,2.25165 0.53693,2.99175 2.19567,2.99175 1.82522,0 3.57106,-1.35588 3.91061,-3.03712 0.1878,-0.92987 0.76625,-1.21245 1.98353,-0.969 1.2507,0.25014 1.40142,1.06926 0.48461,2.63368 -1.80696,3.08334 -5.86098,4.97971 -8.71004,4.07433 z m 3.58103,-11.13214 c 2.39531,-0.57069 3.15,-1.05727 3.15,-2.03096 0,-0.46519 -0.2646,-1.08526 -0.58801,-1.37793 -1.22077,-1.10479 -3.42307,0.0608 -4.62775,2.44924 -0.62464,1.23847 -0.61275,1.66867 0.0408,1.47368 0.28875,-0.0862 1.2,-0.31747 2.025,-0.51403 z m 36.64689,11.09049 c -0.30421,-0.17683 -0.74127,-0.77183 -0.97123,-1.32222 -1.29677,-3.1036 2.39409,-7.96377 7.37434,-9.71061 l 1.65,-0.57875 0.0885,-1.62636 c 0.11645,-2.13895 -0.33004,-2.56962 -2.11087,-2.03608 -0.70238,0.21045 -1.66361,0.82347 -2.18678,1.39464 -1.05213,1.14866 -1.90265,1.29014 -2.6685,0.44388 -0.99988,-1.10485 -0.51583,-1.87765 1.95182,-3.11617 2.32367,-1.16626 4.85781,-1.67891 6.39366,-1.29344 1.48128,0.37178 1.63193,1.20834 1.71113,9.50254 l 0.0729,7.63233 -0.85094,0.41533 c -0.59767,0.29172 -1.08158,0.33247 -1.62593,0.13692 -0.71781,-0.25786 -0.76789,-0.39369 -0.67856,-1.84033 0.053,-0.85906 0.003,-1.56192 -0.11218,-1.56192 -0.11474,0 -0.73342,0.59619 -1.37483,1.32488 -1.9097,2.16953 -4.995,3.20469 -6.66255,2.23536 z m 5.0831,-3.51632 c 0.6435,-0.47084 1.40111,-1.11703 1.68357,-1.43598 0.70314,-0.79398 1.43644,-2.62197 1.43644,-3.58083 0,-0.71259 -0.0829,-0.77209 -0.825,-0.5924 -1.34022,0.3245 -3.91068,2.17947 -4.69855,3.39072 -0.6791,1.044 -0.89677,1.76856 -0.811,2.69957 0.0649,0.70435 1.98768,0.41659 3.21454,-0.48108 z m 30.75449,2.94441 c -1.7108,-1.7108 -1.69673,-5.73553 0.0327,-9.3466 2.2395,-4.67616 5.95585,-7.37052 8.85785,-6.42194 0.6748,0.22058 0.675,0.21958 0.675,-3.38546 0,-2.13154 -0.14473,-3.92375 -0.35395,-4.38293 -0.30117,-0.66099 -0.26761,-0.86159 0.225,-1.3452 0.86069,-0.84496 1.96528,-0.99912 2.74043,-0.38244 0.66135,0.52614 0.6615,0.52875 0.71276,12.97569 l 0.0513,12.44946 -0.86276,0.24704 c -0.5126,0.14678 -1.19759,0.11958 -1.68776,-0.067 -0.80021,-0.30464 -0.82547,-0.38417 -0.84074,-2.6465 -0.0154,-2.28934 -0.0251,-2.31857 -0.52411,-1.58243 -1.09215,1.61124 -3.17807,3.60356 -4.38414,4.18741 -1.90562,0.9225 -3.52425,0.8182 -4.64153,-0.29908 z m 4.95818,-2.66538 c 1.24671,-0.76019 3.65913,-4.17557 4.20647,-5.95528 0.45378,-1.4755 0.33463,-3.47453 -0.24902,-4.17779 -0.17797,-0.21443 -0.77485,-0.38988 -1.32641,-0.38988 -1.97514,0 -4.43295,3.13596 -5.3921,6.87989 -0.90681,3.53963 0.30611,5.14001 2.76106,3.64306 z M 7.906329,195.66776 c -0.3540189,-0.0557 -0.8816887,-0.36429 -1.1725993,-0.68574 -0.4499397,-0.49718 -0.4738233,-0.7054 -0.15993,-1.39432 0.2746176,-0.60272 0.3513357,-3.5916 0.2999439,-11.68562 -0.053863,-8.48327 0.015504,-10.97765 0.3153348,-11.33892 C 7.4135682,170.29267 8.0529747,170.1 8.7261786,170.1 c 1.3172544,0 1.6048214,0.36232 1.8564134,2.33897 0.214981,1.68902 1.652079,4.67107 4.829606,10.02168 1.423291,2.39667 2.587803,4.51097 2.587803,4.69846 0,0.18749 0.104084,0.34089 0.231298,0.34089 0.215909,0 0.213008,-1.63504 -0.02249,-12.675 -0.08383,-3.92966 -0.04377,-4.31741 0.495903,-4.8 0.692543,-0.6193 1.001293,-0.6422 1.962664,-0.14558 l 0.717376,0.37058 -0.0481,11.7 c -0.02864,6.96665 0.06712,11.87551 0.236692,12.13384 0.52866,0.80533 -0.174955,1.51616 -1.500767,1.51616 -1.337082,0 -1.064285,0.40087 -3.099481,-4.55463 -0.452809,-1.10254 -1.909938,-3.80255 -3.238064,-6 -1.328126,-2.19745 -2.739654,-4.67037 -3.136728,-5.49537 l -0.7219532,-1.5 0.070311,8.40902 c 0.038671,4.62495 -0.021405,8.55741 -0.1334994,8.73878 -0.2513388,0.40668 -1.0531269,0.60429 -1.9068321,0.46996 z m 151.843681,-0.18851 c -1.27282,-0.56184 -2.05,-1.53966 -2.05,-2.57925 0,-1.08142 0.90028,-2.15902 1.70281,-2.03821 0.5323,0.0801 0.76924,0.37434 1.39988,1.73821 0.32198,0.69635 2.1964,0.71469 3.52963,0.0345 1.81864,-0.9278 3.06768,-2.52405 3.06768,-3.92043 0,-0.64077 -0.082,-1.37857 -0.1821,-1.63956 -0.23267,-0.60632 -1.66855,-0.61889 -2.81764,-0.0247 -1.66747,0.86228 -4.12601,1.34481 -5.10793,1.00251 -2.40548,-0.83855 -2.5574,-4.65792 -0.28784,-7.23627 1.67639,-1.90449 4.14679,-3.0364 6.66292,-3.05289 1.80284,-0.0118 2.10403,0.0733 2.83179,0.80039 0.74661,0.74591 0.78047,0.87697 0.40689,1.575 -0.4148,0.77507 -1.80609,1.0984 -1.80609,0.41973 0,-0.57882 -3.44403,-0.10367 -4.64973,0.64149 -1.18314,0.73122 -1.95027,1.96818 -1.95027,3.14469 0,1.12854 0.76758,1.25869 2.8336,0.48045 3.38512,-1.27513 3.91162,-1.34964 5.17529,-0.73237 3.12898,1.52843 2.78266,6.31535 -0.67722,9.36087 -2.40071,2.11318 -5.89779,2.98977 -8.08167,2.02578 z M 46.778129,195.375 c -0.01203,-0.12375 -0.01137,-3.87 0.0015,-8.325 0.02085,-7.23251 0.07752,-8.14016 0.529212,-8.475 0.665547,-0.49336 1.638693,-0.47578 2.347368,0.0424 0.40935,0.29933 0.550224,0.72369 0.497943,1.5 -0.0401,0.59543 0.03984,1.08259 0.177639,1.08259 0.137799,0 0.703458,-0.46729 1.257018,-1.03842 1.396509,-1.44083 2.817756,-2.08623 3.633141,-1.64985 0.854643,0.45739 1.478088,2.06806 1.478088,3.81863 0,1.68827 -0.366078,2.16964 -1.65,2.16964 -1.244271,0 -1.635195,-0.45877 -1.436142,-1.68539 0.243843,-1.50263 -0.487434,-1.31583 -2.168499,0.55392 l -1.410243,1.56853 0.107442,4.95647 c 0.05909,2.72606 -0.0018,5.12522 -0.135264,5.33147 -0.259401,0.4008 -3.191544,0.537 -3.229167,0.15 z m 47.845126,-0.11828 c -0.116688,-0.18881 -0.182721,-5.68985 -0.146742,-12.22454 0.07247,-13.16199 0.05684,-13.05876 1.9488,-12.87174 1.023417,0.10117 1.41306,0.71498 1.961235,3.08956 0.190452,0.825 1.235724,3.525 2.322832,6 2.0852,4.74736 3.39062,8.29043 3.39062,9.20255 0,1.05372 0.4899,0.53447 0.86068,-0.91224 0.20576,-0.80283 1.25497,-3.26658 2.33157,-5.475 2.9456,-6.04226 3.46198,-7.40959 3.66911,-9.71531 l 0.18864,-2.1 1.27115,-0.0921 c 2.43566,-0.1764 2.29706,-0.89014 2.21061,11.38437 -0.0521,7.39763 0.0295,11.1862 0.25368,11.77318 0.4978,1.3036 -0.24218,2.28598 -1.71735,2.27992 -1.36762,-0.006 -1.91062,-0.31894 -1.85852,-1.0724 0.14381,-2.07942 0.30824,-11.41719 0.22934,-13.02301 l -0.0958,-1.95 -1.555,3.15 c -1.9163,3.88188 -3.20956,7.35762 -3.80111,10.21576 -0.46049,2.22487 -0.76967,2.67158 -1.85464,2.67965 -1.21784,0.009 -1.65944,-0.66385 -1.949,-2.96989 -0.32217,-2.56579 -1.93795,-7.48244 -3.597902,-10.94805 l -1.162707,-2.42747 0.04898,7.806 c 0.02694,4.2933 -0.05364,7.97205 -0.17907,8.175 -0.287613,0.46537 -2.485059,0.48578 -2.76939,0.0257 z m 45.469375,-0.1156 c -0.29394,-0.35418 -0.30232,-0.63122 -0.0367,-1.21412 0.44777,-0.98274 0.46103,-7.21932 0.016,-7.49441 -0.21076,-0.13025 -0.25141,-0.64639 -0.11363,-1.4427 0.118,-0.68194 0.23192,-2.4317 0.25317,-3.88836 0.0425,-2.91507 0.37903,-3.50153 2.00922,-3.50153 1.18794,0 1.55726,0.62594 1.31653,2.23127 -0.11289,0.7528 -0.10268,1.36873 0.0227,1.36873 0.12537,0 0.87616,-0.60633 1.66843,-1.3474 0.79226,-0.74107 1.92911,-1.58041 2.52633,-1.8652 0.97732,-0.46606 1.16587,-0.47291 1.88629,-0.0685 1.46076,0.8199 1.54994,1.36176 1.5547,9.44614 0.003,5.45015 -0.0945,7.61392 -0.35558,7.875 -0.46417,0.46418 -2.5379,0.46789 -2.82395,0.005 -0.12065,-0.19522 -0.18592,-3.27522 -0.14505,-6.84446 0.091,-7.94348 0.0852,-7.95574 -2.66404,-5.65853 l -1.86348,1.55708 0.10326,5.31225 c 0.0754,3.87925 0.006,5.40347 -0.25908,5.65042 -0.53625,0.5005 -2.64782,0.41814 -3.09503,-0.12071 z m 70.78133,0.23388 c -0.0143,-0.12375 -0.007,-3.87 0.0166,-8.325 0.0375,-7.11345 0.10246,-8.14567 0.53339,-8.475 0.6973,-0.5329 1.69933,-0.46425 2.48271,0.1701 0.56423,0.45689 0.61834,0.64757 0.33431,1.17827 -0.18637,0.34824 -0.256,0.8491 -0.15472,1.11301 0.14768,0.38485 0.47251,0.21011 1.64064,-0.88254 2.45232,-2.29385 3.77649,-2.37627 4.64847,-0.28933 0.51834,1.24058 0.55677,3.78333 0.0646,4.27549 -0.42704,0.42704 -1.70848,0.46559 -2.33375,0.0702 -0.28554,-0.18056 -0.41198,-0.64944 -0.35463,-1.31511 0.049,-0.56898 -0.0417,-1.11538 -0.20167,-1.21423 -0.15994,-0.0988 -0.99379,0.58947 -1.85302,1.5296 l -1.56222,1.70932 0.10765,4.9651 c 0.0592,2.73081 -0.001,5.13386 -0.13507,5.34011 -0.25947,0.40091 -3.18856,0.53679 -3.23334,0.15 z m 15.34955,-0.19669 c -0.37999,-0.45785 -0.55743,-24.94438 -0.18347,-25.31834 0.10798,-0.10798 0.74256,-0.19633 1.41018,-0.19633 1.38901,0 2.56735,1.05316 2.13791,1.9108 -0.13097,0.26156 -0.25845,5.65679 -0.28329,11.98942 -0.0365,9.29955 -0.12302,11.56319 -0.45,11.7704 -0.63713,0.40377 -2.24594,0.30842 -2.63133,-0.15595 z m 27.90228,-0.25331 c -0.14248,-0.37734 -0.13822,-0.89781 0.01,-1.18028 0.39974,-0.76349 0.32703,-6.75282 -0.0901,-7.42074 -0.27513,-0.44055 -0.2654,-0.93986 0.0434,-2.22698 0.25686,-1.07075 0.32725,-2.34978 0.19847,-3.60672 -0.18388,-1.79474 -0.14672,-1.98461 0.47338,-2.41895 1.33724,-0.93663 3.58245,-0.20953 3.06424,0.99235 -0.33575,0.77873 -0.51239,2.13632 -0.27795,2.13632 0.11823,0 0.90981,-0.62535 1.75905,-1.38967 0.84924,-0.76431 1.99193,-1.60365 2.5393,-1.8652 0.88887,-0.42472 1.08077,-0.42753 1.79566,-0.0263 1.46076,0.8199 1.54994,1.36176 1.5547,9.44614 0.003,5.45014 -0.0945,7.61391 -0.35558,7.875 -0.46417,0.46417 -2.53791,0.46789 -2.82395,0.005 -0.12065,-0.19522 -0.18592,-3.27522 -0.14505,-6.84446 0.0921,-8.03871 0.0511,-8.12264 -2.68782,-5.51014 l -1.83419,1.74952 0.0863,5.1102 c 0.0475,2.81062 -0.0165,5.27662 -0.1422,5.48001 -0.12601,0.20389 -0.83061,0.3698 -1.57051,0.3698 -1.11615,0 -1.38486,-0.11358 -1.59685,-0.675 z M 80.410557,186.61972 c -0.76182,-1.42347 0.266442,-3.69818 1.388007,-3.07052 0.590781,0.33061 3.005037,0.12733 3.945969,-0.33226 1.342332,-0.65564 2.655978,1.1373 1.886586,2.57492 -0.346239,0.64695 -0.572199,0.70814 -2.615052,0.70814 -1.303668,0 -2.382006,0.14594 -2.586063,0.35 -0.54246,0.54246 -1.675005,0.41331 -2.019447,-0.23028 z M 123.67345,175.125 c -1.51162,-1.88942 0.10956,-4.52137 2.19868,-3.56951 0.61177,0.27875 0.72787,0.54459 0.72787,1.66665 0,0.81364 -0.18411,1.51911 -0.47142,1.80643 -0.56402,0.56402 -2.03482,0.62179 -2.45513,0.0964 z m 5.70986,0 c -0.47653,-0.61585 -0.67474,-1.39488 -0.39837,-1.56569 0.14231,-0.088 0.19343,-0.40965 0.11361,-0.71489 -0.16944,-0.64793 0.61775,-1.54442 1.35613,-1.54442 0.2815,0 0.81186,0.21016 1.17857,0.46701 0.85795,0.60093 0.92741,2.50411 0.11813,3.23649 -0.64768,0.58615 -1.95658,0.6533 -2.36807,0.1215 z M 4.5000002,143.85 l 0,-24.75 81.1319878,0 81.131992,0 -1.30325,2.475 c -1.71692,3.26061 -3.35277,7.72781 -4.25613,11.62271 -2.05192,8.84692 -0.65254,22.67618 3.12683,30.90065 l 0.75897,1.65164 0.37725,-3.9 c 0.47059,-4.86512 0.82728,-6.90528 1.95778,-11.19796 2.37946,-9.03514 6.97311,-18.33546 12.88562,-26.08824 1.47385,-1.93259 3.06289,-3.95255 3.53119,-4.4888 l 0.85146,-0.975 12.46068,0 12.46068,0 1.13627,1.725 c 2.10265,3.1921 5.06672,6.80624 7.94207,9.68393 8.0005,8.007 17.0218,12.65137 28.05661,14.44418 3.43607,0.55825 13.17081,0.45836 18,-0.1847 6.52981,-0.86951 14.67445,-2.68807 19.425,-4.33725 l 1.725,-0.59884 0,14.38384 0,14.38384 -140.70001,0 -140.6999998,0 0,-24.75 z m 28.7029148,13.4848 c 0.689103,-0.40381 1.681458,-1.24059 2.205237,-1.8595 l 0.952323,-1.1253 -0.195789,1.40612 c -0.168618,1.21099 -0.113103,1.45037 0.400041,1.725 0.899439,0.48137 2.299212,0.38314 2.937348,-0.20612 0.538407,-0.49717 0.560046,-0.94077 0.408234,-8.36931 -0.149133,-7.29754 -0.202128,-7.89066 -0.760308,-8.50942 -0.33,-0.36582 -0.915369,-0.78571 -1.300824,-0.93309 -1.899831,-0.72641 -8.538918,1.64463 -8.926245,3.18787 -0.492185,1.96102 2.257485,3.17345 3.364704,1.48362 0.631665,-0.96405 1.908543,-1.63467 3.112437,-1.63467 l 0.929871,0 -0.08997,1.67433 -0.08997,1.67433 -1.569642,0.55142 c -4.110522,1.44407 -7.580358,5.36217 -7.580358,8.55967 0,1.73391 0.392446,2.47452 1.598621,3.01684 1.229235,0.55269 2.983102,0.30822 4.604293,-0.64179 z m -2.793006,-2.9811 c -0.240186,-0.62591 1.213116,-2.99067 2.371782,-3.85927 0.532569,-0.39924 1.54206,-1.01406 2.24331,-1.36626 l 1.275,-0.64037 0,0.73657 c 0,1.19524 -0.562917,2.35002 -1.742862,3.57536 -1.777722,1.8461 -3.751347,2.58562 -4.14723,1.55397 z m -14.509908,3.28198 c 1.4025,-0.25493 3.222643,-0.46473 4.044762,-0.46623 0.945772,-0.002 1.689506,-0.17897 2.025,-0.48258 0.53414,-0.48339 0.692661,-1.71453 0.339322,-2.63532 -0.278763,-0.72644 -1.518167,-1.12132 -2.264995,-0.72163 -0.339144,0.18151 -1.688432,0.50163 -2.998416,0.71138 l -2.381791,0.38136 0.05858,-10.90676 c 0.04507,-8.39015 -0.02846,-11.01164 -0.318674,-11.36133 -0.492703,-0.59367 -2.804432,-0.60626 -3.292698,-0.0179 -0.266561,0.32119 -0.378681,3.4345 -0.424056,11.775 -0.03393,6.23611 -0.170601,11.69641 -0.303722,12.13401 -0.188384,0.61926 -0.102522,0.93516 0.387322,1.425 0.758734,0.75874 1.697,0.78892 5.129361,0.16504 z m 36.608248,-0.031 c 0.407964,-0.27243 1.157775,-0.88439 1.666248,-1.3599 l 0.924495,-0.86456 -0.132294,0.90139 c -0.108495,0.73922 0.0044,0.96367 0.627546,1.24759 0.831192,0.37872 2.761728,0.14657 3.081312,-0.37053 0.304611,-0.49287 0.127509,-15.89237 -0.189582,-16.48486 -0.353124,-0.65982 -1.743132,-0.98136 -2.704143,-0.62553 l -0.731829,0.27097 0.108885,5.30036 0.108882,5.30037 -0.820203,1.18356 c -0.451113,0.65095 -1.238496,1.4484 -1.749741,1.77209 -1.685067,1.06691 -1.763001,0.74697 -1.656297,-6.79962 0.103533,-7.32231 0.117135,-7.26186 -1.636248,-7.2714 -0.464598,-0.002 -1.105848,0.13516 -1.425,0.30596 -0.549945,0.29433 -0.580278,0.70256 -0.580278,7.80964 0,7.88658 0.176619,9.13072 1.39689,9.84005 0.838038,0.48714 2.876895,0.40167 3.711357,-0.15558 z m 35.277757,-0.54698 c 3.295311,-1.47769 5.247528,-4.161 5.301744,-7.28721 0.03603,-2.07732 -0.61191,-3.46071 -1.943382,-4.14924 -1.181358,-0.61091 -2.703264,-0.42923 -5.306925,0.63349 -1.051908,0.42936 -2.098158,0.70943 -2.325,0.62238 -0.229644,-0.0881 -0.41244,-0.57887 -0.41244,-1.10726 0,-2.1782 4.298874,-4.36033 6.172065,-3.13297 1.467615,0.96162 2.906529,-0.38759 2.112315,-1.98063 -1.041306,-2.08865 -5.445867,-1.9188 -8.723697,0.33641 -2.099118,1.44423 -3.160683,3.29018 -3.160683,5.49608 0,1.61438 0.09034,1.86162 1.02,2.79127 1.220727,1.22073 2.13336,1.29835 4.612494,0.39231 4.153275,-1.51788 4.327506,-1.50022 4.327506,0.43874 0,1.51722 -1.005351,2.955 -2.718066,3.88717 -2.085402,1.13502 -3.641934,1.04086 -3.641934,-0.22032 0,-0.8645 -0.544497,-1.3779 -1.461378,-1.3779 -1.177536,0 -1.838622,0.81613 -1.838622,2.26983 0,1.05752 0.158556,1.41025 0.923121,2.05359 0.507717,0.42722 1.283967,0.85602 1.725,0.95291 0.441033,0.0969 0.936879,0.22423 1.101879,0.28299 0.615318,0.21913 2.749818,-0.2352 4.236003,-0.90164 z m 18.624294,0.31 c 1.72403,-0.80269 4.09674,-3.08252 4.54432,-4.36644 0.43011,-1.23382 -0.16847,-2.22714 -1.41452,-2.34734 -1.18576,-0.11439 -1.99852,0.51323 -2.24215,1.73139 -0.34468,1.72336 -3.68333,3.08647 -4.80715,1.96265 -0.40521,-0.40521 -0.49768,-0.93986 -0.42872,-2.47886 l 0.0879,-1.96221 2.55015,-0.67591 c 3.61402,-0.95789 4.99333,-1.56776 5.85097,-2.587 1.34092,-1.5936 0.85231,-4.4463 -1.03334,-6.03297 -0.79,-0.66474 -1.25937,-0.81099 -2.60274,-0.81099 -2.80066,0 -5.1713,1.75758 -6.85667,5.08348 -1.728969,3.41197 -2.185899,8.44325 -0.983367,10.82795 1.220957,2.42124 4.232007,3.10111 7.335297,1.65625 z m -3.3942,-11.14511 c 0.80269,-2.11988 2.91976,-3.7456 4.07354,-3.12811 0.32814,0.17561 0.75268,0.6109 0.94342,0.96731 0.56837,1.062 -0.71149,1.82892 -4.22475,2.53157 -0.90583,0.18117 -0.98684,0.14325 -0.79221,-0.37077 z m 48.35353,11.16396 c 3.86234,-1.7985 6.35294,-6.04276 3.90632,-6.65682 -1.46542,-0.3678 -2.09462,-0.0412 -2.87594,1.49275 -1.18815,2.33266 -3.90138,3.38363 -4.93299,1.91079 -0.48105,-0.6868 -0.64432,-3.42752 -0.23742,-3.98549 0.12122,-0.16623 1.23291,-0.55296 2.47041,-0.85941 4.88601,-1.20994 6.70968,-2.51878 6.67533,-4.79085 -0.0241,-1.59283 -0.63411,-2.85704 -1.88758,-3.91176 -0.75799,-0.63782 -1.24234,-0.78574 -2.57272,-0.78574 -3.88369,0 -6.89836,3.36727 -8.10371,9.05152 -0.60468,2.85154 -0.42015,5.82798 0.44845,7.23339 1.28036,2.07167 4.27771,2.6204 7.10985,1.30162 z m -2.9244,-11.77334 c 0.83786,-1.63416 1.91109,-2.54639 3.03335,-2.5783 1.15539,-0.0328 1.52583,0.29928 1.60837,1.44205 0.0577,0.79848 -0.0651,0.91558 -1.43694,1.37076 -0.825,0.27374 -2.01777,0.59467 -2.65058,0.71318 l -1.15058,0.21549 0.59638,-1.16318 z m -78.091298,11.77103 c 0.533652,-0.39021 0.563241,-0.83019 0.481329,-7.15729 l -0.08728,-6.74153 0.963507,-0.1927 c 0.529932,-0.10598 1.549387,-0.1927 2.265457,-0.1927 1.459839,0 1.923054,-0.49942 1.923054,-2.07336 0,-1.3947 -0.997827,-1.93304 -2.555076,-1.37849 -0.657207,0.23403 -1.518658,0.43144 -1.914331,0.43868 l -0.719406,0.0132 0.178029,-2.74791 c 0.119529,-1.84494 0.325821,-2.8957 0.627798,-3.19767 0.39969,-0.39969 0.557967,-0.32755 1.421575,0.64791 1.074231,1.21336 1.593399,1.34272 2.412789,0.60118 0.835518,-0.75614 0.705321,-2.2451 -0.276378,-3.16072 -1.207947,-1.12665 -1.97373,-1.44279 -3.494839,-1.44279 -1.081119,0 -1.568076,0.18332 -2.379564,0.89582 -1.242156,1.09062 -1.684629,2.52648 -1.952451,6.33583 L 67.050002,140.85 65.709683,141 c -1.202703,0.1346 -1.368591,0.24914 -1.615689,1.11556 -0.211806,0.74267 -0.160176,1.14137 0.22368,1.7272 0.442221,0.67492 0.636909,0.73961 1.709565,0.56809 l 1.210509,-0.19357 -0.06208,6.3888 c -0.05725,5.89244 -0.01929,6.42006 0.488466,6.79136 0.711987,0.52061 1.968177,0.51444 2.689794,-0.0132 z m 51.070348,-0.37877 c 0.25806,-0.34896 0.33159,-0.83427 0.19776,-1.30545 -0.11715,-0.4125 -0.26697,-2.51024 -0.33295,-4.66165 l -0.11994,-3.91165 1.07503,-1.40794 c 0.59128,-0.77437 1.35841,-1.55959 1.70475,-1.74494 0.59749,-0.31977 0.61955,-0.28289 0.43119,0.72113 -0.16611,0.88547 -0.0882,1.13541 0.47744,1.5316 0.93277,0.65334 1.92362,0.59227 2.68114,-0.16524 0.55867,-0.55868 0.61553,-0.8603 0.45381,-2.40753 -0.44303,-4.23871 -2.29524,-4.9228 -5.45153,-2.01343 l -1.36362,1.25694 0.19508,-1.22002 c 0.16572,-1.03635 0.10265,-1.26949 -0.41895,-1.54864 -0.82054,-0.43914 -2.21948,-0.41637 -2.84881,0.0464 -0.45683,0.3359 -0.51474,1.24583 -0.55546,8.72756 -0.0375,6.89081 0.0286,8.40251 0.37766,8.63801 0.67562,0.45579 3.03113,0.0954 3.4974,-0.53512 z m 15.31679,0.0821 c 0.35475,-0.35475 0.43262,-1.84349 0.43262,-8.27073 0,-7.09056 -0.0509,-7.89432 -0.53334,-8.42745 -0.63004,-0.69618 -1.85659,-0.76461 -2.73071,-0.15235 -0.60734,0.42539 -0.61991,0.60875 -0.47429,6.91682 0.10944,4.74107 0.0486,6.78572 -0.22661,7.61972 -0.38583,1.16909 -0.12059,2.21799 0.71117,2.81236 0.47209,0.33734 2.31015,0.0126 2.82116,-0.49837 z m -0.25689,-19.67169 c 0.7359,-0.73589 1.29329,-2.75271 1.03985,-3.76249 -0.36726,-1.46328 -2.012,-1.78703 -3.11483,-0.61312 -0.81277,0.86516 -1.1711,3.30987 -0.63261,4.31605 0.44284,0.82744 1.90749,0.85967 2.70759,0.0596 z m 145.06583,1.88349 c -17.56496,-1.08362 -31.64307,-5.92183 -44.4,-15.25889 -1.65,-1.20767 -3.675,-2.80726 -4.5,-3.55465 l -1.5,-1.35888 27.375,-0.0134 27.375,-0.0135 0,10.2 0,10.2 -1.425,-0.0541 c -0.78375,-0.0297 -2.1,-0.0957 -2.925,-0.14662 z m -114.45,-20.39578 c 0,-0.10807 0.89697,-1.54384 1.99327,-3.19061 4.77816,-7.17736 11.2585,-13.79408 17.56632,-17.93602 2.30784,-1.515411 5.37705,-2.9769 6.25166,-2.9769 0.4803,0 0.34393,-0.273801 -1.01993,-2.047788 -3.90723,-5.08218 -8.21383,-12.970434 -9.92046,-18.170994 -1.06027,-3.230937 -1.97086,-7.853781 -1.97086,-10.005603 l 0,-1.780137 -1.725,-0.384402 c -4.83416,-1.077249 -12.19444,-4.400532 -17.19054,-7.761798 -9.4755,-6.374919 -16.06438,-14.947185 -19.78707,-25.743385 -2.04685,-5.936114 -3.46415,-14.491957 -3.24377,-19.5818669 l 0.0964,-2.2259739 1.42131,3.2759738 c 7.48384,17.249472 20.09962,28.534714 36.69893,32.828437 5.3575,1.385817 9.37473,1.813719 19.77977,2.106879 9.77501,0.275406 13.5098,0.53451 19.65,1.363227 21.16133,2.85606 35.79067,10.161363 45.01251,22.477431 6.8274,9.118221 10.77213,21.564315 11.2674,35.55 l 0.16467,4.65 -2.39621,-4.54839 c -12.73833,-24.179436 -30.8182,-39.821073 -49.69189,-42.99048 -6.91316,-1.160907 -10.7755,-1.054236 -15.87317,0.438387 l -1.7667,0.517296 0.19062,2.441595 c 0.88656,11.355573 6.28849,25.671471 14.16587,37.541592 3.31242,4.99136 9.12494,12.02293 12.02748,14.55 0.85282,0.7425 1.56157,1.45125 1.575,1.575 0.0134,0.12375 -4.62294,0.225 -10.30304,0.225 l -10.32745,0 -1.52713,-2.6686 c -0.83991,-1.46773 -1.93876,-3.59398 -2.44188,-4.725 -0.50313,-1.13102 -1.10856,-2.4818 -1.34543,-3.00174 -0.23686,-0.51993 -0.43065,-1.08572 -0.43065,-1.25729 0,-0.59719 -0.61941,-0.6859 -2.32932,-0.3336 -4.3207,0.89019 -10.46413,4.92783 -15.66098,10.29286 l -1.64029,1.69337 -8.63471,0 c -4.74909,0 -8.6347,-0.0884 -8.6347,-0.19647 z m 20.20235,-83.832198 c -6.15125,-1.027527 -11.36279,-6.03244 -12.85006,-12.340585 -2.88611,-12.24121 8.60399,-23.38516664 20.05089,-19.4468531 6.39933,2.2016895 10.9864,8.7217741 10.9864,15.6161061 0,6.027179 -3.75278,12.085341 -9.10708,14.701674 -1.43679,0.702078 -3.23071,1.312485 -4.3825,1.49121 -2.20049,0.341451 -2.5337,0.339924 -4.69765,-0.02154 z"
     style="fill:#cd071e;fill-opacity:1" />
</svg>
